# xmcd
#
# Track frame offsets:
#	150
#	18275
#	32884
#	50217
#	69224
#	85618
#	104997
#	123848
#	138133
#	156561
#	172244
#	187240
#	205011
#	223481
#	245473
#	258513
#
# Disc length: 3664 seconds
#
# Revision: 0
# Processed by: cddbd v1.5.2PL0 Copyright (c) Steve Scherf et al.
# Submitted via: audiograbber 1.83.01
#
DISCID=f60e4e10
DTITLE=Chartbuster - 2010 Country Hits Disk 2
DYEAR=2010
DGENRE=Country
TTITLE0=Kenny Chesney - Ain't Back Yet
TTITLE1=Carrie Underwood - Undo It
TTITLE2=Lee Brice - Love Like Crazy
TTITLE3=Tim McGraw - Southern Voice
TTITLE4=Rodney Atkins - Farmer's Daughter
TTITLE5=Taylor Swift - Today Was A Fairytale
TTITLE6=Jason Michael Carroll - Hurry Home
TTITLE7=Luke Bryan - Rain Is A Good Thing
TTITLE8=Rascal Flatts - Close
TTITLE9=Reba McEntire - I Keep On Loving You
TTITLE10=Danny Gokey - My Best Days Are Ahead Of Me
TTITLE11=Blake Shelton ft. Trace Adkins - Hillbilly Bone
TTITLE12=Josh Thompson - Way Out Here
TTITLE13=Jo Dee Messina - That's God
TTITLE14=Justin Moore - Backwoods
TTITLE15=Clay Walker - She Won't Be Lonely Long
EXTD=
EXTT0=
EXTT1=
EXTT2=
EXTT3=
EXTT4=
EXTT5=
EXTT6=
EXTT7=
EXTT8=
EXTT9=
EXTT10=
EXTT11=
EXTT12=
EXTT13=
EXTT14=
EXTT15=
PLAYORDER=
